<?xml version="1.0" standalone="no"?>
<!DOCTYPE svg PUBLIC "-//W3C//DTD SVG 20010904//EN"
 "http://www.w3.org/TR/2001/REC-SVG-20010904/DTD/svg10.dtd">
<svg version="1.0" xmlns="http://www.w3.org/2000/svg"
 width="512.000000pt" height="512.000000pt" viewBox="0 0 512.000000 512.000000"
 preserveAspectRatio="xMidYMid meet">
<metadata>
Created by potrace 1.14, written by Peter Selinger 2001-2017
</metadata>
<g transform="translate(0.000000,512.000000) scale(0.100000,-0.100000)"
fill="#000000" stroke="none">
<path d="M2355 5103 c-288 -43 -553 -176 -773 -389 -94 -90 -83 -86 -177 -67
-81 16 -373 -8 -449 -37 -14 -5 -26 -8 -26 -5 0 5 -119 -40 -190 -72 -218 -99
-437 -296 -558 -503 -62 -104 -147 -316 -143 -357 0 -2 -5 -17 -10 -35 -23
-82 -32 -305 -17 -433 47 -382 304 -762 640 -943 l47 -26 3 -935 c2 -760 6
-942 17 -966 64 -142 126 -218 224 -273 109 -60 19 -57 1622 -57 1403 0 1472
1 1523 18 178 62 289 192 328 382 3 11 5 428 5 926 l1 907 25 11 c91 42 266
181 353 282 205 238 309 505 315 809 3 159 -6 246 -40 365 -121 429 -436 758
-851 888 -157 50 -392 74 -511 53 -93 -17 -82 -21 -181 74 -207 199 -449 325
-725 376 -108 21 -339 24 -452 7z m350 -226 c22 -4 56 -9 76 -11 64 -9 201
-57 289 -100 364 -180 617 -545 646 -930 11 -159 19 -183 64 -209 35 -21 72
-22 115 -1 43 20 59 61 58 143 -3 192 -53 391 -145 575 l-40 79 114 -6 c114
-6 124 -7 213 -28 457 -108 797 -549 789 -1024 -1 -110 -8 -160 -30 -249 -75
-292 -281 -544 -559 -684 -110 -55 -99 12 -105 -671 l-5 -597 -1615 2 c-888 0
-1620 2 -1627 3 -9 1 -12 135 -11 583 2 614 2 614 -42 645 -9 7 -52 30 -95 53
-299 154 -502 445 -553 790 -10 70 -6 238 7 315 44 256 194 499 405 656 114
86 274 160 397 184 13 3 35 8 49 11 14 3 76 8 138 11 l114 6 -40 -79 c-116
-230 -182 -588 -127 -681 37 -63 115 -72 170 -20 31 27 36 40 40 87 13 157 18
191 36 265 76 304 254 549 519 717 67 42 174 94 215 104 17 4 35 10 40 14 6 4
24 10 40 14 17 3 41 9 55 12 117 28 304 37 405 21z m1482 -4199 c-2 -139 -6
-260 -9 -268 -20 -56 -34 -79 -66 -109 -77 -71 47 -65 -1532 -67 -1057 -1
-1437 2 -1471 11 -61 15 -119 62 -149 122 -24 47 -25 54 -28 306 l-3 257 1631
0 1631 0 -4 -252z"/>
<path d="M1205 2757 c-38 -33 -39 -36 -38 -98 1 -94 33 -198 108 -350 44 -87
48 -94 137 -228 96 -146 153 -209 193 -216 70 -11 137 42 137 109 0 41 -11 62
-77 151 -146 196 -244 388 -265 520 -13 83 -25 108 -60 128 -46 27 -91 22
-135 -16z"/>
<path d="M2484 2756 l-39 -34 0 -389 c0 -435 -2 -423 71 -458 34 -16 42 -16
78 -4 21 8 49 27 60 42 20 28 21 39 21 407 0 344 -2 382 -18 412 -36 66 -112
77 -173 24z"/>
<path d="M3765 2758 c-30 -28 -36 -42 -44 -98 -11 -84 -39 -160 -94 -264 -43
-81 -144 -237 -208 -322 -17 -23 -34 -57 -38 -77 -21 -88 77 -162 160 -121 45
22 179 205 272 373 26 46 47 85 47 87 0 2 11 27 24 56 86 188 92 336 17 381
-47 28 -96 22 -136 -15z"/>
</g>
</svg>
